# Blender v2.79 (sub 0) OBJ File: ''
# www.blender.org
o Ball.001
v -0.000000 0.119840 -0.000000
v 0.161691 0.176615 0.117473
v -0.061760 0.176615 0.190079
v 0.275086 0.329984 0.199860
v 0.323382 0.300136 -0.000000
v -0.199862 0.176615 -0.000000
v -0.061760 0.176615 -0.190079
v 0.161691 0.176615 -0.117473
v 0.361554 0.500000 0.117475
v -0.105071 0.329984 0.323383
v 0.099933 0.300136 0.307553
v -0.000000 0.500000 0.380160
v -0.340025 0.329986 -0.000000
v -0.261622 0.300136 0.190079
v -0.361554 0.500000 0.117475
v -0.105071 0.329985 -0.323383
v -0.261622 0.300136 -0.190079
v -0.223453 0.500000 -0.307556
v 0.275086 0.329985 -0.199860
v 0.099933 0.300136 -0.307553
v 0.223453 0.500000 -0.307556
v 0.223453 0.500000 0.307556
v -0.223453 0.500000 0.307556
v -0.361554 0.500000 -0.117475
v -0.000000 0.500000 -0.380160
v 0.361554 0.500000 -0.117475
v 0.105071 0.670015 0.323383
v 0.261622 0.699864 0.190079
v 0.061760 0.823384 0.190079
v -0.275086 0.670015 0.199860
v -0.099933 0.699864 0.307553
v -0.161691 0.823384 0.117473
v -0.275086 0.670015 -0.199860
v -0.323382 0.699864 0.000000
v -0.161691 0.823384 -0.117473
v 0.105071 0.670015 -0.323383
v -0.099933 0.699864 -0.307553
v 0.061760 0.823384 -0.190079
v 0.340025 0.670013 0.000000
v 0.261622 0.699864 -0.190079
v 0.199862 0.823384 0.000000
v -0.000000 0.880160 0.000000
vt 0.844287 0.844287
vt 0.874463 0.844287
vt 0.874463 0.874463
vt 0.844287 0.844287
vt 0.874463 0.874463
vt 0.874463 0.844287
vt 0.874463 0.874463
vt 0.874463 0.844287
vt 0.874463 0.874463
vt 0.874463 0.844287
vt 0.874463 0.874463
vt 0.874463 0.844287
vt 0.874463 0.874463
vt 0.844287 0.844287
vt 0.874463 0.844287
vt 0.874463 0.874463
vt 0.844287 0.844287
vt 0.874463 0.844287
vt 0.874463 0.874463
vt 0.844287 0.844287
vt 0.874463 0.844287
vt 0.874463 0.874463
vt 0.844287 0.844287
vt 0.874463 0.844287
vt 0.874463 0.874463
vt 0.874463 0.844287
vt 0.874463 0.874463
vt 0.874463 0.844287
vt 0.874463 0.874463
vt 0.874463 0.844287
vt 0.874463 0.874463
vt 0.874463 0.844287
vt 0.874463 0.874463
vt 0.874463 0.844287
vt 0.874463 0.874463
vt 0.844287 0.844287
vt 0.874463 0.844287
vt 0.874463 0.874463
vt 0.844287 0.844287
vt 0.874463 0.844287
vt 0.874463 0.874463
vt 0.844287 0.844287
vt 0.874463 0.844287
vt 0.874463 0.874463
vt 0.844287 0.844287
vt 0.874463 0.844287
vt 0.874463 0.874463
vt 0.844287 0.844287
vt 0.874463 0.844287
vt 0.874463 0.874463
vt 0.844287 0.844287
vt 0.874463 0.844287
vt 0.874463 0.874463
vt 0.844287 0.844287
vt 0.874463 0.844287
vt 0.844287 0.844287
vt 0.874463 0.844287
vt 0.844287 0.844287
vt 0.874463 0.844287
vt 0.844287 0.844287
vt 0.874463 0.844287
vt 0.844287 0.844287
vt 0.874463 0.844287
vt 0.844287 0.844287
vt 0.874463 0.844287
vt 0.844287 0.844287
vt 0.874463 0.844287
vt 0.844287 0.844287
vt 0.874463 0.844287
vt 0.844287 0.844287
vt 0.874463 0.844287
vt 0.844287 0.844287
vt 0.874463 0.874463
vt 0.874463 0.874463
vt 0.844287 0.844287
vt 0.844287 0.844287
vt 0.874463 0.874463
vt 0.874463 0.874463
vt 0.844287 0.844287
vt 0.844287 0.844287
vt 0.874463 0.874463
vt 0.874463 0.874463
vt 0.844287 0.844287
vt 0.844287 0.844287
vt 0.874463 0.874463
vt 0.874463 0.874463
vt 0.844287 0.844287
vt 0.844287 0.844287
vt 0.874463 0.874463
vt 0.874463 0.874463
vt 0.844287 0.844287
vt 0.874463 0.844287
vt 0.844287 0.844287
vt 0.874463 0.844287
vt 0.874463 0.844287
vt 0.844287 0.844287
vt 0.874463 0.844287
vt 0.874463 0.844287
vt 0.844287 0.844287
vt 0.874463 0.844287
vt 0.874463 0.844287
vt 0.844287 0.844287
vt 0.874463 0.844287
vt 0.874463 0.844287
vt 0.844287 0.844287
vt 0.874463 0.844287
vt 0.844287 0.844287
vt 0.874463 0.874463
vt 0.874463 0.874463
vt 0.844287 0.844287
vt 0.874463 0.874463
vt 0.874463 0.874463
vt 0.844287 0.844287
vt 0.874463 0.874463
vt 0.874463 0.874463
vt 0.844287 0.844287
vt 0.874463 0.844287
vt 0.844287 0.844287
vt 0.874463 0.844287
vt 0.874463 0.874463
vt 0.874463 0.874463
vn 0.1024 -0.9435 0.3151
vn 0.7002 -0.6617 0.2680
vn -0.2680 -0.9435 0.1947
vn -0.2680 -0.9435 -0.1947
vn 0.1024 -0.9435 -0.3151
vn 0.9050 -0.3304 0.2680
vn 0.0248 -0.3304 0.9435
vn -0.8897 -0.3304 0.3151
vn -0.5746 -0.3304 -0.7488
vn 0.5346 -0.3304 -0.7779
vn 0.8026 -0.1256 0.5831
vn -0.3066 -0.1256 0.9435
vn -0.9921 -0.1256 -0.0000
vn -0.3066 -0.1256 -0.9435
vn 0.8026 -0.1256 -0.5831
vn 0.4089 0.6617 0.6284
vn -0.4713 0.6617 0.5831
vn -0.7002 0.6617 -0.2680
vn 0.0385 0.6617 -0.7488
vn 0.7240 0.6617 -0.1947
vn 0.2680 0.9435 -0.1947
vn 0.4911 0.7947 -0.3568
vn 0.4089 0.6617 -0.6284
vn -0.1024 0.9435 -0.3151
vn -0.1876 0.7947 -0.5773
vn -0.4713 0.6617 -0.5831
vn -0.3313 0.9435 0.0000
vn -0.6071 0.7947 0.0000
vn -0.7002 0.6617 0.2680
vn -0.1024 0.9435 0.3151
vn -0.1876 0.7947 0.5773
vn 0.0385 0.6617 0.7488
vn 0.2680 0.9435 0.1947
vn 0.4911 0.7947 0.3568
vn 0.7240 0.6617 0.1947
vn 0.8897 0.3304 -0.3151
vn 0.7947 0.1876 -0.5773
vn 0.5746 0.3304 -0.7488
vn -0.0248 0.3304 -0.9435
vn -0.3035 0.1876 -0.9342
vn -0.5346 0.3304 -0.7779
vn -0.9050 0.3304 -0.2680
vn -0.9822 0.1876 0.0000
vn -0.9050 0.3304 0.2680
vn -0.5346 0.3304 0.7779
vn -0.3035 0.1876 0.9342
vn -0.0248 0.3304 0.9435
vn 0.5746 0.3304 0.7488
vn 0.7947 0.1876 0.5773
vn 0.8897 0.3304 0.3151
vn 0.3066 0.1256 -0.9435
vn 0.3035 -0.1876 -0.9342
vn 0.0248 -0.3304 -0.9435
vn -0.8026 0.1256 -0.5831
vn -0.7947 -0.1876 -0.5773
vn -0.8897 -0.3304 -0.3151
vn -0.8026 0.1256 0.5831
vn -0.7947 -0.1876 0.5773
vn -0.5746 -0.3304 0.7488
vn 0.3066 0.1256 0.9435
vn 0.3035 -0.1876 0.9342
vn 0.5346 -0.3304 0.7779
vn 0.9921 0.1256 0.0000
vn 0.9822 -0.1876 -0.0000
vn 0.9050 -0.3304 -0.2680
vn 0.4713 -0.6617 -0.5831
vn 0.1876 -0.7947 -0.5773
vn -0.0385 -0.6617 -0.7488
vn -0.4089 -0.6617 -0.6284
vn -0.4911 -0.7947 -0.3568
vn -0.7240 -0.6617 -0.1947
vn -0.7240 -0.6617 0.1947
vn -0.4911 -0.7947 0.3568
vn -0.4089 -0.6617 0.6284
vn 0.7002 -0.6617 -0.2680
vn 0.6071 -0.7947 0.0000
vn 0.3313 -0.9435 0.0000
vn -0.0385 -0.6617 0.7488
vn 0.1876 -0.7947 0.5773
vn 0.4713 -0.6617 0.5831
s 1
f 1/1/1 2/2/1 3/3/1
f 4/4/2 2/2/2 5/5/2
f 1/1/3 3/6/3 6/7/3
f 1/1/4 6/8/4 7/9/4
f 1/1/5 7/10/5 8/11/5
f 4/4/6 5/12/6 9/13/6
f 10/14/7 11/15/7 12/16/7
f 13/17/8 14/18/8 15/19/8
f 16/20/9 17/21/9 18/22/9
f 19/23/10 20/24/10 21/25/10
f 4/4/11 9/26/11 22/27/11
f 10/14/12 12/28/12 23/29/12
f 13/17/13 15/30/13 24/31/13
f 16/20/14 18/32/14 25/33/14
f 19/23/15 21/34/15 26/35/15
f 27/36/16 28/37/16 29/38/16
f 30/39/17 31/40/17 32/41/17
f 33/42/18 34/43/18 35/44/18
f 36/45/19 37/46/19 38/47/19
f 39/48/20 40/49/20 41/50/20
f 41/51/21 38/52/21 42/53/21
f 41/51/22 40/49/22 38/47/22
f 40/54/23 36/55/23 38/47/23
f 38/56/24 35/57/24 42/53/24
f 38/56/25 37/46/25 35/44/25
f 37/58/26 33/59/26 35/44/26
f 35/60/27 32/61/27 42/53/27
f 35/60/28 34/43/28 32/41/28
f 34/62/29 30/63/29 32/41/29
f 32/64/30 29/65/30 42/53/30
f 32/64/31 31/40/31 29/38/31
f 31/66/32 27/67/32 29/38/32
f 29/68/33 41/69/33 42/53/33
f 29/68/34 28/37/34 41/50/34
f 28/70/35 39/71/35 41/50/35
f 26/72/36 40/49/36 39/73/36
f 26/72/37 21/34/37 40/74/37
f 21/75/38 36/55/38 40/74/38
f 25/76/39 37/46/39 36/77/39
f 25/76/40 18/32/40 37/78/40
f 18/79/41 33/59/41 37/78/41
f 24/80/42 34/43/42 33/81/42
f 24/80/43 15/30/43 34/82/43
f 15/83/44 30/63/44 34/82/44
f 23/84/45 31/40/45 30/85/45
f 23/84/46 12/28/46 31/86/46
f 12/87/47 27/67/47 31/86/47
f 22/88/48 28/37/48 27/89/48
f 22/88/49 9/26/49 28/90/49
f 9/91/50 39/71/50 28/90/50
f 21/75/51 25/92/51 36/77/51
f 21/75/52 20/24/52 25/33/52
f 20/93/53 16/94/53 25/33/53
f 18/79/54 24/95/54 33/81/54
f 18/79/55 17/21/55 24/31/55
f 17/96/56 13/97/56 24/31/56
f 15/83/57 23/98/57 30/85/57
f 15/83/58 14/18/58 23/29/58
f 14/99/59 10/100/59 23/29/59
f 12/87/60 22/101/60 27/89/60
f 12/87/61 11/15/61 22/27/61
f 11/102/62 4/103/62 22/27/62
f 9/91/63 26/104/63 39/73/63
f 9/91/64 5/12/64 26/35/64
f 5/105/65 19/106/65 26/35/65
f 8/107/66 20/24/66 19/108/66
f 8/107/67 7/10/67 20/109/67
f 7/110/68 16/94/68 20/109/68
f 7/110/69 17/21/69 16/111/69
f 7/110/70 6/8/70 17/112/70
f 6/113/71 13/97/71 17/112/71
f 6/113/72 14/18/72 13/114/72
f 6/113/73 3/6/73 14/115/73
f 3/116/74 10/100/74 14/115/74
f 5/105/75 8/117/75 19/108/75
f 5/105/76 2/2/76 8/11/76
f 2/118/77 1/119/77 8/11/77
f 3/116/78 11/15/78 10/120/78
f 3/116/79 2/2/79 11/121/79
f 2/118/80 4/103/80 11/121/80
